<?xml version="1.0" encoding="utf-8"?>
<!-- Generator: Adobe Illustrator 24.0.1, SVG Export Plug-In . SVG Version: 6.00 Build 0)  -->
<svg version="1.1" id="Capa_1" xmlns="http://www.w3.org/2000/svg" xmlns:xlink="http://www.w3.org/1999/xlink" x="0px" y="0px"
	 viewBox="0 0 246 153.7" style="enable-background:new 0 0 246 153.7;" xml:space="preserve">
<title>Recurso 1</title>
<g id="Capa_2_1_">
	<g id="Capa_1-2">
		<line x1="9.5" y1="9.5" x2="236.5" y2="9.5"/>
		<path d="M236.5,19H9.5C4.3,19,0,14.7,0,9.5S4.3,0,9.5,0h227c5.2,0,9.5,4.3,9.5,9.5S241.7,19,236.5,19z"/>
		<line x1="9.5" y1="76.9" x2="236.5" y2="76.9"/>
		<path d="M236.5,86.4H9.5c-5.2,0-9.5-4.3-9.5-9.5s4.3-9.5,9.5-9.5h227c5.2,0,9.5,4.3,9.5,9.5S241.7,86.4,236.5,86.4z"/>
		<line x1="9.5" y1="144.2" x2="236.5" y2="144.2"/>
		<path d="M236.5,153.7H9.5c-5.2,0-9.5-4.3-9.5-9.5s4.3-9.5,9.5-9.5h227c5.2,0,9.5,4.3,9.5,9.5S241.7,153.7,236.5,153.7z"/>
	</g>
</g>
</svg>
